%TF.GenerationSoftware,KiCad,Pcbnew,9.0.7*%
%TF.CreationDate,2026-03-14T10:23:16-07:00*%
%TF.ProjectId,PCB-v1,5043422d-7631-42e6-9b69-6361645f7063,rev?*%
%TF.SameCoordinates,Original*%
%TF.FileFunction,Legend,Top*%
%TF.FilePolarity,Positive*%
%FSLAX46Y46*%
G04 Gerber Fmt 4.6, Leading zero omitted, Abs format (unit mm)*
G04 Created by KiCad (PCBNEW 9.0.7) date 2026-03-14 10:23:16*
%MOMM*%
%LPD*%
G01*
G04 APERTURE LIST*
%ADD10C,0.150000*%
%ADD11C,0.120000*%
%ADD12C,0.127000*%
%ADD13C,0.200000*%
G04 APERTURE END LIST*
D10*
X122238095Y-70454819D02*
X122238095Y-71264342D01*
X122238095Y-71264342D02*
X122285714Y-71359580D01*
X122285714Y-71359580D02*
X122333333Y-71407200D01*
X122333333Y-71407200D02*
X122428571Y-71454819D01*
X122428571Y-71454819D02*
X122619047Y-71454819D01*
X122619047Y-71454819D02*
X122714285Y-71407200D01*
X122714285Y-71407200D02*
X122761904Y-71359580D01*
X122761904Y-71359580D02*
X122809523Y-71264342D01*
X122809523Y-71264342D02*
X122809523Y-70454819D01*
X123809523Y-71454819D02*
X123238095Y-71454819D01*
X123523809Y-71454819D02*
X123523809Y-70454819D01*
X123523809Y-70454819D02*
X123428571Y-70597676D01*
X123428571Y-70597676D02*
X123333333Y-70692914D01*
X123333333Y-70692914D02*
X123238095Y-70740533D01*
X126333333Y-93954819D02*
X126000000Y-93478628D01*
X125761905Y-93954819D02*
X125761905Y-92954819D01*
X125761905Y-92954819D02*
X126142857Y-92954819D01*
X126142857Y-92954819D02*
X126238095Y-93002438D01*
X126238095Y-93002438D02*
X126285714Y-93050057D01*
X126285714Y-93050057D02*
X126333333Y-93145295D01*
X126333333Y-93145295D02*
X126333333Y-93288152D01*
X126333333Y-93288152D02*
X126285714Y-93383390D01*
X126285714Y-93383390D02*
X126238095Y-93431009D01*
X126238095Y-93431009D02*
X126142857Y-93478628D01*
X126142857Y-93478628D02*
X125761905Y-93478628D01*
X126666667Y-92954819D02*
X127285714Y-92954819D01*
X127285714Y-92954819D02*
X126952381Y-93335771D01*
X126952381Y-93335771D02*
X127095238Y-93335771D01*
X127095238Y-93335771D02*
X127190476Y-93383390D01*
X127190476Y-93383390D02*
X127238095Y-93431009D01*
X127238095Y-93431009D02*
X127285714Y-93526247D01*
X127285714Y-93526247D02*
X127285714Y-93764342D01*
X127285714Y-93764342D02*
X127238095Y-93859580D01*
X127238095Y-93859580D02*
X127190476Y-93907200D01*
X127190476Y-93907200D02*
X127095238Y-93954819D01*
X127095238Y-93954819D02*
X126809524Y-93954819D01*
X126809524Y-93954819D02*
X126714286Y-93907200D01*
X126714286Y-93907200D02*
X126666667Y-93859580D01*
X126333333Y-89454819D02*
X126000000Y-88978628D01*
X125761905Y-89454819D02*
X125761905Y-88454819D01*
X125761905Y-88454819D02*
X126142857Y-88454819D01*
X126142857Y-88454819D02*
X126238095Y-88502438D01*
X126238095Y-88502438D02*
X126285714Y-88550057D01*
X126285714Y-88550057D02*
X126333333Y-88645295D01*
X126333333Y-88645295D02*
X126333333Y-88788152D01*
X126333333Y-88788152D02*
X126285714Y-88883390D01*
X126285714Y-88883390D02*
X126238095Y-88931009D01*
X126238095Y-88931009D02*
X126142857Y-88978628D01*
X126142857Y-88978628D02*
X125761905Y-88978628D01*
X126714286Y-88550057D02*
X126761905Y-88502438D01*
X126761905Y-88502438D02*
X126857143Y-88454819D01*
X126857143Y-88454819D02*
X127095238Y-88454819D01*
X127095238Y-88454819D02*
X127190476Y-88502438D01*
X127190476Y-88502438D02*
X127238095Y-88550057D01*
X127238095Y-88550057D02*
X127285714Y-88645295D01*
X127285714Y-88645295D02*
X127285714Y-88740533D01*
X127285714Y-88740533D02*
X127238095Y-88883390D01*
X127238095Y-88883390D02*
X126666667Y-89454819D01*
X126666667Y-89454819D02*
X127285714Y-89454819D01*
X126333333Y-85454819D02*
X126000000Y-84978628D01*
X125761905Y-85454819D02*
X125761905Y-84454819D01*
X125761905Y-84454819D02*
X126142857Y-84454819D01*
X126142857Y-84454819D02*
X126238095Y-84502438D01*
X126238095Y-84502438D02*
X126285714Y-84550057D01*
X126285714Y-84550057D02*
X126333333Y-84645295D01*
X126333333Y-84645295D02*
X126333333Y-84788152D01*
X126333333Y-84788152D02*
X126285714Y-84883390D01*
X126285714Y-84883390D02*
X126238095Y-84931009D01*
X126238095Y-84931009D02*
X126142857Y-84978628D01*
X126142857Y-84978628D02*
X125761905Y-84978628D01*
X127285714Y-85454819D02*
X126714286Y-85454819D01*
X127000000Y-85454819D02*
X127000000Y-84454819D01*
X127000000Y-84454819D02*
X126904762Y-84597676D01*
X126904762Y-84597676D02*
X126809524Y-84692914D01*
X126809524Y-84692914D02*
X126714286Y-84740533D01*
X138974391Y-83359687D02*
X138879153Y-83312068D01*
X138879153Y-83312068D02*
X138783915Y-83216830D01*
X138783915Y-83216830D02*
X138641058Y-83073972D01*
X138641058Y-83073972D02*
X138545820Y-83026353D01*
X138545820Y-83026353D02*
X138450582Y-83026353D01*
X138498201Y-83264449D02*
X138402963Y-83216830D01*
X138402963Y-83216830D02*
X138307725Y-83121591D01*
X138307725Y-83121591D02*
X138260106Y-82931115D01*
X138260106Y-82931115D02*
X138260106Y-82597782D01*
X138260106Y-82597782D02*
X138307725Y-82407306D01*
X138307725Y-82407306D02*
X138402963Y-82312068D01*
X138402963Y-82312068D02*
X138498201Y-82264449D01*
X138498201Y-82264449D02*
X138688677Y-82264449D01*
X138688677Y-82264449D02*
X138783915Y-82312068D01*
X138783915Y-82312068D02*
X138879153Y-82407306D01*
X138879153Y-82407306D02*
X138926772Y-82597782D01*
X138926772Y-82597782D02*
X138926772Y-82931115D01*
X138926772Y-82931115D02*
X138879153Y-83121591D01*
X138879153Y-83121591D02*
X138783915Y-83216830D01*
X138783915Y-83216830D02*
X138688677Y-83264449D01*
X138688677Y-83264449D02*
X138498201Y-83264449D01*
X139879153Y-83264449D02*
X139307725Y-83264449D01*
X139593439Y-83264449D02*
X139593439Y-82264449D01*
X139593439Y-82264449D02*
X139498201Y-82407306D01*
X139498201Y-82407306D02*
X139402963Y-82502544D01*
X139402963Y-82502544D02*
X139307725Y-82550163D01*
X137035476Y-63884819D02*
X137035476Y-62884819D01*
X137035476Y-62884819D02*
X137368809Y-63599104D01*
X137368809Y-63599104D02*
X137702142Y-62884819D01*
X137702142Y-62884819D02*
X137702142Y-63884819D01*
X138702142Y-63884819D02*
X138130714Y-63884819D01*
X138416428Y-63884819D02*
X138416428Y-62884819D01*
X138416428Y-62884819D02*
X138321190Y-63027676D01*
X138321190Y-63027676D02*
X138225952Y-63122914D01*
X138225952Y-63122914D02*
X138130714Y-63170533D01*
X113100001Y-95139866D02*
X112433334Y-95139866D01*
X112433334Y-95139866D02*
X112433334Y-93739866D01*
X113500000Y-95073200D02*
X113700000Y-95139866D01*
X113700000Y-95139866D02*
X114033334Y-95139866D01*
X114033334Y-95139866D02*
X114166667Y-95073200D01*
X114166667Y-95073200D02*
X114233334Y-95006533D01*
X114233334Y-95006533D02*
X114300000Y-94873200D01*
X114300000Y-94873200D02*
X114300000Y-94739866D01*
X114300000Y-94739866D02*
X114233334Y-94606533D01*
X114233334Y-94606533D02*
X114166667Y-94539866D01*
X114166667Y-94539866D02*
X114033334Y-94473200D01*
X114033334Y-94473200D02*
X113766667Y-94406533D01*
X113766667Y-94406533D02*
X113633334Y-94339866D01*
X113633334Y-94339866D02*
X113566667Y-94273200D01*
X113566667Y-94273200D02*
X113500000Y-94139866D01*
X113500000Y-94139866D02*
X113500000Y-94006533D01*
X113500000Y-94006533D02*
X113566667Y-93873200D01*
X113566667Y-93873200D02*
X113633334Y-93806533D01*
X113633334Y-93806533D02*
X113766667Y-93739866D01*
X113766667Y-93739866D02*
X114100000Y-93739866D01*
X114100000Y-93739866D02*
X114300000Y-93806533D01*
X115633333Y-95139866D02*
X114833333Y-95139866D01*
X115233333Y-95139866D02*
X115233333Y-93739866D01*
X115233333Y-93739866D02*
X115100000Y-93939866D01*
X115100000Y-93939866D02*
X114966667Y-94073200D01*
X114966667Y-94073200D02*
X114833333Y-94139866D01*
X137095238Y-91061009D02*
X137238095Y-91108628D01*
X137238095Y-91108628D02*
X137285714Y-91156247D01*
X137285714Y-91156247D02*
X137333333Y-91251485D01*
X137333333Y-91251485D02*
X137333333Y-91394342D01*
X137333333Y-91394342D02*
X137285714Y-91489580D01*
X137285714Y-91489580D02*
X137238095Y-91537200D01*
X137238095Y-91537200D02*
X137142857Y-91584819D01*
X137142857Y-91584819D02*
X136761905Y-91584819D01*
X136761905Y-91584819D02*
X136761905Y-90584819D01*
X136761905Y-90584819D02*
X137095238Y-90584819D01*
X137095238Y-90584819D02*
X137190476Y-90632438D01*
X137190476Y-90632438D02*
X137238095Y-90680057D01*
X137238095Y-90680057D02*
X137285714Y-90775295D01*
X137285714Y-90775295D02*
X137285714Y-90870533D01*
X137285714Y-90870533D02*
X137238095Y-90965771D01*
X137238095Y-90965771D02*
X137190476Y-91013390D01*
X137190476Y-91013390D02*
X137095238Y-91061009D01*
X137095238Y-91061009D02*
X136761905Y-91061009D01*
X138285714Y-91584819D02*
X137714286Y-91584819D01*
X138000000Y-91584819D02*
X138000000Y-90584819D01*
X138000000Y-90584819D02*
X137904762Y-90727676D01*
X137904762Y-90727676D02*
X137809524Y-90822914D01*
X137809524Y-90822914D02*
X137714286Y-90870533D01*
D11*
%TO.C,R3*%
X124480000Y-93350000D02*
X125250000Y-93350000D01*
X132560000Y-93350000D02*
X131790000Y-93350000D01*
X125250000Y-91980000D02*
X131790000Y-91980000D01*
X131790000Y-94720000D01*
X125250000Y-94720000D01*
X125250000Y-91980000D01*
%TO.C,R2*%
X124480000Y-89300000D02*
X125250000Y-89300000D01*
X132560000Y-89300000D02*
X131790000Y-89300000D01*
X125250000Y-87930000D02*
X131790000Y-87930000D01*
X131790000Y-90670000D01*
X125250000Y-90670000D01*
X125250000Y-87930000D01*
%TO.C,R1*%
X124480000Y-85250000D02*
X125250000Y-85250000D01*
X132560000Y-85250000D02*
X131790000Y-85250000D01*
X125250000Y-83880000D02*
X131790000Y-83880000D01*
X131790000Y-86620000D01*
X125250000Y-86620000D01*
X125250000Y-83880000D01*
D12*
%TO.C,Q1*%
X142314630Y-87444630D02*
G75*
G02*
X136474630Y-87444630I-2920000J0D01*
G01*
X136474630Y-87444630D02*
G75*
G02*
X142314630Y-87444630I2920000J0D01*
G01*
X136957590Y-85834900D02*
X136053550Y-84930870D01*
X136053550Y-84930870D02*
X136880870Y-84103550D01*
X136880870Y-84103550D02*
X137784900Y-85007590D01*
D13*
X135994630Y-87444630D02*
G75*
G02*
X135794630Y-87444630I-100000J0D01*
G01*
X135794630Y-87444630D02*
G75*
G02*
X135994630Y-87444630I100000J0D01*
G01*
D11*
%TO.C,M1*%
X134900000Y-64370000D02*
X134900000Y-79730000D01*
X134900000Y-79730000D02*
X137560000Y-79730000D01*
X137560000Y-79730000D02*
X137560000Y-64370000D01*
X137560000Y-64370000D02*
X134900000Y-64370000D01*
X137560000Y-65320000D02*
X143560000Y-65320000D01*
X143560000Y-65320000D02*
X143560000Y-66080000D01*
X143560000Y-66080000D02*
X137560000Y-66080000D01*
X137560000Y-65380000D02*
X143560000Y-65380000D01*
X137560000Y-65500000D02*
X143560000Y-65500000D01*
X137560000Y-65620000D02*
X143560000Y-65620000D01*
X137560000Y-65740000D02*
X143560000Y-65740000D01*
X137560000Y-65860000D02*
X143560000Y-65860000D01*
X137560000Y-65980000D02*
X143560000Y-65980000D01*
X134570000Y-65320000D02*
X134900000Y-65320000D01*
X134570000Y-66080000D02*
X134900000Y-66080000D01*
X134900000Y-66970000D02*
X137560000Y-66970000D01*
X137560000Y-67860000D02*
X143560000Y-67860000D01*
X143560000Y-67860000D02*
X143560000Y-68620000D01*
X143560000Y-68620000D02*
X137560000Y-68620000D01*
X134502929Y-67860000D02*
X134900000Y-67860000D01*
X134502929Y-68620000D02*
X134900000Y-68620000D01*
X134900000Y-69510000D02*
X137560000Y-69510000D01*
X137560000Y-70400000D02*
X143560000Y-70400000D01*
X143560000Y-70400000D02*
X143560000Y-71160000D01*
X143560000Y-71160000D02*
X137560000Y-71160000D01*
X134502929Y-70400000D02*
X134900000Y-70400000D01*
X134502929Y-71160000D02*
X134900000Y-71160000D01*
X134900000Y-72050000D02*
X137560000Y-72050000D01*
X137560000Y-72940000D02*
X143560000Y-72940000D01*
X143560000Y-72940000D02*
X143560000Y-73700000D01*
X143560000Y-73700000D02*
X137560000Y-73700000D01*
X134502929Y-72940000D02*
X134900000Y-72940000D01*
X134502929Y-73700000D02*
X134900000Y-73700000D01*
X134900000Y-74590000D02*
X137560000Y-74590000D01*
X137560000Y-75480000D02*
X143560000Y-75480000D01*
X143560000Y-75480000D02*
X143560000Y-76240000D01*
X143560000Y-76240000D02*
X137560000Y-76240000D01*
X134502929Y-75480000D02*
X134900000Y-75480000D01*
X134502929Y-76240000D02*
X134900000Y-76240000D01*
X134900000Y-77130000D02*
X137560000Y-77130000D01*
X137560000Y-78020000D02*
X143560000Y-78020000D01*
X143560000Y-78020000D02*
X143560000Y-78780000D01*
X143560000Y-78780000D02*
X137560000Y-78780000D01*
X134502929Y-78020000D02*
X134900000Y-78020000D01*
X134502929Y-78780000D02*
X134900000Y-78780000D01*
X132190000Y-65700000D02*
X132190000Y-64430000D01*
X132190000Y-64430000D02*
X133460000Y-64430000D01*
D12*
%TO.C,LS1*%
X121090000Y-90100000D02*
G75*
G02*
X108890000Y-90100000I-6100000J0D01*
G01*
X108890000Y-90100000D02*
G75*
G02*
X121090000Y-90100000I6100000J0D01*
G01*
D11*
%TO.C,B1*%
X136170000Y-97330000D02*
X138830000Y-97330000D01*
X136170000Y-94730000D02*
X136170000Y-97330000D01*
X138830000Y-94730000D02*
X138830000Y-97330000D01*
X136170000Y-94730000D02*
X138830000Y-94730000D01*
X136170000Y-93460000D02*
X136170000Y-92130000D01*
X136170000Y-92130000D02*
X137500000Y-92130000D01*
%TD*%
M02*
