%TF.GenerationSoftware,KiCad,Pcbnew,9.0.7*%
%TF.CreationDate,2026-03-14T10:09:04-07:00*%
%TF.ProjectId,PCB-v1,5043422d-7631-42e6-9b69-6361645f7063,rev?*%
%TF.SameCoordinates,Original*%
%TF.FileFunction,Legend,Bot*%
%TF.FilePolarity,Positive*%
%FSLAX46Y46*%
G04 Gerber Fmt 4.6, Leading zero omitted, Abs format (unit mm)*
G04 Created by KiCad (PCBNEW 9.0.7) date 2026-03-14 10:09:04*
%MOMM*%
%LPD*%
G01*
G04 APERTURE LIST*
%ADD10C,0.100000*%
G04 APERTURE END LIST*
D10*
G36*
X121532519Y-78630915D02*
G01*
X121575139Y-78575106D01*
X121812848Y-78575106D01*
X121861758Y-78635129D01*
X121861758Y-78679764D01*
X121479213Y-79012362D01*
X121468412Y-79027042D01*
X121464619Y-79047288D01*
X121464619Y-79129720D01*
X121466793Y-79143392D01*
X121473717Y-79157686D01*
X121538686Y-79244331D01*
X121551938Y-79256345D01*
X121563110Y-79259658D01*
X121830129Y-79259658D01*
X121842356Y-79256688D01*
X121853881Y-79247079D01*
X121923063Y-79161533D01*
X121930923Y-79147887D01*
X121933565Y-79132041D01*
X121933565Y-79088627D01*
X121865666Y-79088627D01*
X121865666Y-79115127D01*
X121816329Y-79173684D01*
X121577276Y-79173684D01*
X121532519Y-79112318D01*
X121532519Y-79069087D01*
X121914942Y-78737527D01*
X121925839Y-78722895D01*
X121929658Y-78702723D01*
X121929658Y-78619131D01*
X121927016Y-78603410D01*
X121919155Y-78589883D01*
X121850645Y-78504886D01*
X121840226Y-78496523D01*
X121826892Y-78493712D01*
X121562133Y-78493712D01*
X121548795Y-78496510D01*
X121538381Y-78504825D01*
X121472008Y-78585303D01*
X121464714Y-78598259D01*
X121462177Y-78614490D01*
X121462177Y-78658820D01*
X121532519Y-78658820D01*
X121532519Y-78630915D01*
G37*
G36*
X121050872Y-79154206D02*
G01*
X121036156Y-79173684D01*
X120980896Y-79173684D01*
X120980896Y-79259658D01*
X121050200Y-79259658D01*
X121061909Y-79256739D01*
X121073342Y-79247140D01*
X121108269Y-79203726D01*
X121116129Y-79190140D01*
X121118771Y-79174356D01*
X121118771Y-78747725D01*
X121259455Y-78747725D01*
X121259455Y-78661751D01*
X121118771Y-78661751D01*
X121118771Y-78403831D01*
X121050872Y-78403831D01*
X121050872Y-78661751D01*
X120911653Y-78661751D01*
X120911653Y-78747725D01*
X121050872Y-78747725D01*
X121050872Y-79154206D01*
G37*
G36*
X120616836Y-78665074D02*
G01*
X120630713Y-78677260D01*
X120699162Y-78766104D01*
X120708010Y-78782658D01*
X120710397Y-78794253D01*
X120710397Y-79134544D01*
X120708053Y-79152566D01*
X120701971Y-79164098D01*
X120631140Y-79248483D01*
X120621823Y-79256806D01*
X120608792Y-79259658D01*
X120296161Y-79259658D01*
X120296161Y-79181500D01*
X120594748Y-79181500D01*
X120642498Y-79117691D01*
X120642498Y-79005645D01*
X120300069Y-79005645D01*
X120300069Y-78809762D01*
X120366503Y-78809762D01*
X120366503Y-78919672D01*
X120641093Y-78919672D01*
X120641093Y-78811167D01*
X120592001Y-78747725D01*
X120414924Y-78747725D01*
X120366503Y-78809762D01*
X120300069Y-78809762D01*
X120300069Y-78792299D01*
X120302601Y-78776686D01*
X120309900Y-78764272D01*
X120376273Y-78677199D01*
X120388131Y-78665314D01*
X120400758Y-78661751D01*
X120605556Y-78661751D01*
X120616836Y-78665074D01*
G37*
G36*
X120098813Y-79517578D02*
G01*
X120030914Y-79517578D01*
X120030914Y-79259658D01*
X119854204Y-79259658D01*
X119841731Y-79256580D01*
X119831795Y-79247079D01*
X119695080Y-79076903D01*
X119687222Y-79063249D01*
X119684577Y-79047349D01*
X119684577Y-78877173D01*
X119752477Y-78877173D01*
X119752477Y-79031962D01*
X119869286Y-79178264D01*
X120030914Y-79178264D01*
X120030914Y-78747725D01*
X119862325Y-78747725D01*
X119752477Y-78877173D01*
X119684577Y-78877173D01*
X119684577Y-78858916D01*
X119686967Y-78845605D01*
X119695141Y-78829424D01*
X119834970Y-78663461D01*
X119849747Y-78657843D01*
X120098813Y-78657843D01*
X120098813Y-79517578D01*
G37*
G36*
X119086182Y-78630915D02*
G01*
X119128803Y-78575106D01*
X119366512Y-78575106D01*
X119415422Y-78635129D01*
X119415422Y-78679764D01*
X119032876Y-79012362D01*
X119022075Y-79027042D01*
X119018283Y-79047288D01*
X119018283Y-79129720D01*
X119020457Y-79143392D01*
X119027381Y-79157686D01*
X119092349Y-79244331D01*
X119105602Y-79256345D01*
X119116774Y-79259658D01*
X119383792Y-79259658D01*
X119396020Y-79256688D01*
X119407545Y-79247079D01*
X119476727Y-79161533D01*
X119484587Y-79147887D01*
X119487229Y-79132041D01*
X119487229Y-79088627D01*
X119419330Y-79088627D01*
X119419330Y-79115127D01*
X119369993Y-79173684D01*
X119130940Y-79173684D01*
X119086182Y-79112318D01*
X119086182Y-79069087D01*
X119468606Y-78737527D01*
X119479502Y-78722895D01*
X119483321Y-78702723D01*
X119483321Y-78619131D01*
X119480680Y-78603410D01*
X119472819Y-78589883D01*
X119404309Y-78504886D01*
X119393889Y-78496523D01*
X119380556Y-78493712D01*
X119115797Y-78493712D01*
X119102458Y-78496510D01*
X119092044Y-78504825D01*
X119025671Y-78585303D01*
X119018377Y-78598259D01*
X119015840Y-78614490D01*
X119015840Y-78658820D01*
X119086182Y-78658820D01*
X119086182Y-78630915D01*
G37*
G36*
X118782083Y-78665074D02*
G01*
X118795961Y-78677260D01*
X118864410Y-78766104D01*
X118873258Y-78782658D01*
X118875645Y-78794253D01*
X118875645Y-79134544D01*
X118873301Y-79152566D01*
X118867219Y-79164098D01*
X118796388Y-79248483D01*
X118787070Y-79256806D01*
X118774040Y-79259658D01*
X118461409Y-79259658D01*
X118461409Y-79181500D01*
X118759996Y-79181500D01*
X118807745Y-79117691D01*
X118807745Y-79005645D01*
X118465317Y-79005645D01*
X118465317Y-78809762D01*
X118531751Y-78809762D01*
X118531751Y-78919672D01*
X118806341Y-78919672D01*
X118806341Y-78811167D01*
X118757248Y-78747725D01*
X118580172Y-78747725D01*
X118531751Y-78809762D01*
X118465317Y-78809762D01*
X118465317Y-78792299D01*
X118467849Y-78776686D01*
X118475148Y-78764272D01*
X118541521Y-78677199D01*
X118553378Y-78665314D01*
X118566006Y-78661751D01*
X118770804Y-78661751D01*
X118782083Y-78665074D01*
G37*
G36*
X118142550Y-78708096D02*
G01*
X118115378Y-78674391D01*
X118105241Y-78664919D01*
X118091625Y-78661751D01*
X117951308Y-78661751D01*
X117939496Y-78664454D01*
X117928593Y-78673047D01*
X117860450Y-78754869D01*
X117852231Y-78771060D01*
X117849825Y-78784422D01*
X117849825Y-79259658D01*
X117916259Y-79259658D01*
X117916259Y-78802557D01*
X117964619Y-78747725D01*
X118078131Y-78747725D01*
X118125819Y-78806770D01*
X118125819Y-79259658D01*
X118193719Y-79259658D01*
X118193719Y-78789918D01*
X118188895Y-78773065D01*
X118209045Y-78743145D01*
X118264061Y-78743145D01*
X118264061Y-78661751D01*
X118193536Y-78661751D01*
X118180209Y-78664697D01*
X118171920Y-78672986D01*
X118142550Y-78708096D01*
G37*
G36*
X117310048Y-78808724D02*
G01*
X117359874Y-78747725D01*
X117534752Y-78747725D01*
X117567663Y-78789551D01*
X117250819Y-79097847D01*
X117241406Y-79111734D01*
X117238241Y-79128560D01*
X117240988Y-79146711D01*
X117248743Y-79160617D01*
X117320245Y-79247140D01*
X117331774Y-79256696D01*
X117344059Y-79259658D01*
X117548735Y-79259658D01*
X117561010Y-79256672D01*
X117572548Y-79247018D01*
X117642646Y-79162327D01*
X117649882Y-79149043D01*
X117652477Y-79131308D01*
X117652477Y-79091863D01*
X117584577Y-79091863D01*
X117584577Y-79112684D01*
X117534752Y-79173684D01*
X117357065Y-79173684D01*
X117323421Y-79132041D01*
X117639105Y-78826798D01*
X117646732Y-78816126D01*
X117651744Y-78796268D01*
X117651744Y-78791322D01*
X117649406Y-78776109D01*
X117642646Y-78763722D01*
X117574563Y-78674513D01*
X117562910Y-78664805D01*
X117550017Y-78661751D01*
X117345830Y-78661751D01*
X117334250Y-78664699D01*
X117322871Y-78674452D01*
X117252590Y-78760425D01*
X117244776Y-78774118D01*
X117242149Y-78789979D01*
X117242149Y-78835102D01*
X117310048Y-78835102D01*
X117310048Y-78808724D01*
G37*
G36*
X116947331Y-78665074D02*
G01*
X116961209Y-78677260D01*
X117029658Y-78766104D01*
X117038505Y-78782658D01*
X117040893Y-78794253D01*
X117040893Y-79134544D01*
X117038549Y-79152566D01*
X117032466Y-79164098D01*
X116961636Y-79248483D01*
X116952318Y-79256806D01*
X116939288Y-79259658D01*
X116626657Y-79259658D01*
X116626657Y-79181500D01*
X116925244Y-79181500D01*
X116972993Y-79117691D01*
X116972993Y-79005645D01*
X116630565Y-79005645D01*
X116630565Y-78809762D01*
X116696999Y-78809762D01*
X116696999Y-78919672D01*
X116971589Y-78919672D01*
X116971589Y-78811167D01*
X116922496Y-78747725D01*
X116745420Y-78747725D01*
X116696999Y-78809762D01*
X116630565Y-78809762D01*
X116630565Y-78792299D01*
X116633097Y-78776686D01*
X116640396Y-78764272D01*
X116706769Y-78677199D01*
X116718626Y-78665314D01*
X116731254Y-78661751D01*
X116936051Y-78661751D01*
X116947331Y-78665074D01*
G37*
M02*
