%TF.GenerationSoftware,KiCad,Pcbnew,9.0.7*%
%TF.CreationDate,2026-03-14T10:09:04-07:00*%
%TF.ProjectId,PCB-v1,5043422d-7631-42e6-9b69-6361645f7063,rev?*%
%TF.SameCoordinates,Original*%
%TF.FileFunction,Legend,Top*%
%TF.FilePolarity,Positive*%
%FSLAX46Y46*%
G04 Gerber Fmt 4.6, Leading zero omitted, Abs format (unit mm)*
G04 Created by KiCad (PCBNEW 9.0.7) date 2026-03-14 10:09:04*
%MOMM*%
%LPD*%
G01*
G04 APERTURE LIST*
%ADD10C,0.100000*%
%ADD11C,0.150000*%
%ADD12C,0.120000*%
%ADD13C,0.127000*%
%ADD14C,0.200000*%
G04 APERTURE END LIST*
D10*
X108000000Y-63000000D02*
X144000000Y-63000000D01*
X144000000Y-99500000D01*
X108000000Y-99500000D01*
X108000000Y-63000000D01*
D11*
X119853095Y-74054819D02*
X119853095Y-74864342D01*
X119853095Y-74864342D02*
X119900714Y-74959580D01*
X119900714Y-74959580D02*
X119948333Y-75007200D01*
X119948333Y-75007200D02*
X120043571Y-75054819D01*
X120043571Y-75054819D02*
X120234047Y-75054819D01*
X120234047Y-75054819D02*
X120329285Y-75007200D01*
X120329285Y-75007200D02*
X120376904Y-74959580D01*
X120376904Y-74959580D02*
X120424523Y-74864342D01*
X120424523Y-74864342D02*
X120424523Y-74054819D01*
X121424523Y-75054819D02*
X120853095Y-75054819D01*
X121138809Y-75054819D02*
X121138809Y-74054819D01*
X121138809Y-74054819D02*
X121043571Y-74197676D01*
X121043571Y-74197676D02*
X120948333Y-74292914D01*
X120948333Y-74292914D02*
X120853095Y-74340533D01*
X128353333Y-91434819D02*
X128020000Y-90958628D01*
X127781905Y-91434819D02*
X127781905Y-90434819D01*
X127781905Y-90434819D02*
X128162857Y-90434819D01*
X128162857Y-90434819D02*
X128258095Y-90482438D01*
X128258095Y-90482438D02*
X128305714Y-90530057D01*
X128305714Y-90530057D02*
X128353333Y-90625295D01*
X128353333Y-90625295D02*
X128353333Y-90768152D01*
X128353333Y-90768152D02*
X128305714Y-90863390D01*
X128305714Y-90863390D02*
X128258095Y-90911009D01*
X128258095Y-90911009D02*
X128162857Y-90958628D01*
X128162857Y-90958628D02*
X127781905Y-90958628D01*
X128686667Y-90434819D02*
X129305714Y-90434819D01*
X129305714Y-90434819D02*
X128972381Y-90815771D01*
X128972381Y-90815771D02*
X129115238Y-90815771D01*
X129115238Y-90815771D02*
X129210476Y-90863390D01*
X129210476Y-90863390D02*
X129258095Y-90911009D01*
X129258095Y-90911009D02*
X129305714Y-91006247D01*
X129305714Y-91006247D02*
X129305714Y-91244342D01*
X129305714Y-91244342D02*
X129258095Y-91339580D01*
X129258095Y-91339580D02*
X129210476Y-91387200D01*
X129210476Y-91387200D02*
X129115238Y-91434819D01*
X129115238Y-91434819D02*
X128829524Y-91434819D01*
X128829524Y-91434819D02*
X128734286Y-91387200D01*
X128734286Y-91387200D02*
X128686667Y-91339580D01*
X128353333Y-87384819D02*
X128020000Y-86908628D01*
X127781905Y-87384819D02*
X127781905Y-86384819D01*
X127781905Y-86384819D02*
X128162857Y-86384819D01*
X128162857Y-86384819D02*
X128258095Y-86432438D01*
X128258095Y-86432438D02*
X128305714Y-86480057D01*
X128305714Y-86480057D02*
X128353333Y-86575295D01*
X128353333Y-86575295D02*
X128353333Y-86718152D01*
X128353333Y-86718152D02*
X128305714Y-86813390D01*
X128305714Y-86813390D02*
X128258095Y-86861009D01*
X128258095Y-86861009D02*
X128162857Y-86908628D01*
X128162857Y-86908628D02*
X127781905Y-86908628D01*
X128734286Y-86480057D02*
X128781905Y-86432438D01*
X128781905Y-86432438D02*
X128877143Y-86384819D01*
X128877143Y-86384819D02*
X129115238Y-86384819D01*
X129115238Y-86384819D02*
X129210476Y-86432438D01*
X129210476Y-86432438D02*
X129258095Y-86480057D01*
X129258095Y-86480057D02*
X129305714Y-86575295D01*
X129305714Y-86575295D02*
X129305714Y-86670533D01*
X129305714Y-86670533D02*
X129258095Y-86813390D01*
X129258095Y-86813390D02*
X128686667Y-87384819D01*
X128686667Y-87384819D02*
X129305714Y-87384819D01*
X128353333Y-83334819D02*
X128020000Y-82858628D01*
X127781905Y-83334819D02*
X127781905Y-82334819D01*
X127781905Y-82334819D02*
X128162857Y-82334819D01*
X128162857Y-82334819D02*
X128258095Y-82382438D01*
X128258095Y-82382438D02*
X128305714Y-82430057D01*
X128305714Y-82430057D02*
X128353333Y-82525295D01*
X128353333Y-82525295D02*
X128353333Y-82668152D01*
X128353333Y-82668152D02*
X128305714Y-82763390D01*
X128305714Y-82763390D02*
X128258095Y-82811009D01*
X128258095Y-82811009D02*
X128162857Y-82858628D01*
X128162857Y-82858628D02*
X127781905Y-82858628D01*
X129305714Y-83334819D02*
X128734286Y-83334819D01*
X129020000Y-83334819D02*
X129020000Y-82334819D01*
X129020000Y-82334819D02*
X128924762Y-82477676D01*
X128924762Y-82477676D02*
X128829524Y-82572914D01*
X128829524Y-82572914D02*
X128734286Y-82620533D01*
X138974391Y-83359687D02*
X138879153Y-83312068D01*
X138879153Y-83312068D02*
X138783915Y-83216830D01*
X138783915Y-83216830D02*
X138641058Y-83073972D01*
X138641058Y-83073972D02*
X138545820Y-83026353D01*
X138545820Y-83026353D02*
X138450582Y-83026353D01*
X138498201Y-83264449D02*
X138402963Y-83216830D01*
X138402963Y-83216830D02*
X138307725Y-83121591D01*
X138307725Y-83121591D02*
X138260106Y-82931115D01*
X138260106Y-82931115D02*
X138260106Y-82597782D01*
X138260106Y-82597782D02*
X138307725Y-82407306D01*
X138307725Y-82407306D02*
X138402963Y-82312068D01*
X138402963Y-82312068D02*
X138498201Y-82264449D01*
X138498201Y-82264449D02*
X138688677Y-82264449D01*
X138688677Y-82264449D02*
X138783915Y-82312068D01*
X138783915Y-82312068D02*
X138879153Y-82407306D01*
X138879153Y-82407306D02*
X138926772Y-82597782D01*
X138926772Y-82597782D02*
X138926772Y-82931115D01*
X138926772Y-82931115D02*
X138879153Y-83121591D01*
X138879153Y-83121591D02*
X138783915Y-83216830D01*
X138783915Y-83216830D02*
X138688677Y-83264449D01*
X138688677Y-83264449D02*
X138498201Y-83264449D01*
X139879153Y-83264449D02*
X139307725Y-83264449D01*
X139593439Y-83264449D02*
X139593439Y-82264449D01*
X139593439Y-82264449D02*
X139498201Y-82407306D01*
X139498201Y-82407306D02*
X139402963Y-82502544D01*
X139402963Y-82502544D02*
X139307725Y-82550163D01*
X137035476Y-63884819D02*
X137035476Y-62884819D01*
X137035476Y-62884819D02*
X137368809Y-63599104D01*
X137368809Y-63599104D02*
X137702142Y-62884819D01*
X137702142Y-62884819D02*
X137702142Y-63884819D01*
X138702142Y-63884819D02*
X138130714Y-63884819D01*
X138416428Y-63884819D02*
X138416428Y-62884819D01*
X138416428Y-62884819D02*
X138321190Y-63027676D01*
X138321190Y-63027676D02*
X138225952Y-63122914D01*
X138225952Y-63122914D02*
X138130714Y-63170533D01*
X113535001Y-82850866D02*
X112868334Y-82850866D01*
X112868334Y-82850866D02*
X112868334Y-81450866D01*
X113935000Y-82784200D02*
X114135000Y-82850866D01*
X114135000Y-82850866D02*
X114468334Y-82850866D01*
X114468334Y-82850866D02*
X114601667Y-82784200D01*
X114601667Y-82784200D02*
X114668334Y-82717533D01*
X114668334Y-82717533D02*
X114735000Y-82584200D01*
X114735000Y-82584200D02*
X114735000Y-82450866D01*
X114735000Y-82450866D02*
X114668334Y-82317533D01*
X114668334Y-82317533D02*
X114601667Y-82250866D01*
X114601667Y-82250866D02*
X114468334Y-82184200D01*
X114468334Y-82184200D02*
X114201667Y-82117533D01*
X114201667Y-82117533D02*
X114068334Y-82050866D01*
X114068334Y-82050866D02*
X114001667Y-81984200D01*
X114001667Y-81984200D02*
X113935000Y-81850866D01*
X113935000Y-81850866D02*
X113935000Y-81717533D01*
X113935000Y-81717533D02*
X114001667Y-81584200D01*
X114001667Y-81584200D02*
X114068334Y-81517533D01*
X114068334Y-81517533D02*
X114201667Y-81450866D01*
X114201667Y-81450866D02*
X114535000Y-81450866D01*
X114535000Y-81450866D02*
X114735000Y-81517533D01*
X116068333Y-82850866D02*
X115268333Y-82850866D01*
X115668333Y-82850866D02*
X115668333Y-81450866D01*
X115668333Y-81450866D02*
X115535000Y-81650866D01*
X115535000Y-81650866D02*
X115401667Y-81784200D01*
X115401667Y-81784200D02*
X115268333Y-81850866D01*
X137095238Y-91061009D02*
X137238095Y-91108628D01*
X137238095Y-91108628D02*
X137285714Y-91156247D01*
X137285714Y-91156247D02*
X137333333Y-91251485D01*
X137333333Y-91251485D02*
X137333333Y-91394342D01*
X137333333Y-91394342D02*
X137285714Y-91489580D01*
X137285714Y-91489580D02*
X137238095Y-91537200D01*
X137238095Y-91537200D02*
X137142857Y-91584819D01*
X137142857Y-91584819D02*
X136761905Y-91584819D01*
X136761905Y-91584819D02*
X136761905Y-90584819D01*
X136761905Y-90584819D02*
X137095238Y-90584819D01*
X137095238Y-90584819D02*
X137190476Y-90632438D01*
X137190476Y-90632438D02*
X137238095Y-90680057D01*
X137238095Y-90680057D02*
X137285714Y-90775295D01*
X137285714Y-90775295D02*
X137285714Y-90870533D01*
X137285714Y-90870533D02*
X137238095Y-90965771D01*
X137238095Y-90965771D02*
X137190476Y-91013390D01*
X137190476Y-91013390D02*
X137095238Y-91061009D01*
X137095238Y-91061009D02*
X136761905Y-91061009D01*
X138285714Y-91584819D02*
X137714286Y-91584819D01*
X138000000Y-91584819D02*
X138000000Y-90584819D01*
X138000000Y-90584819D02*
X137904762Y-90727676D01*
X137904762Y-90727676D02*
X137809524Y-90822914D01*
X137809524Y-90822914D02*
X137714286Y-90870533D01*
D12*
%TO.C,U1*%
X110500000Y-64920000D02*
X111940000Y-64920000D01*
X111940000Y-64350000D02*
X111940000Y-64920000D01*
X111940000Y-64350000D02*
X127115000Y-64350000D01*
X111940000Y-66440000D02*
X111940000Y-67460000D01*
X111940000Y-68980000D02*
X111940000Y-70000000D01*
X111940000Y-71520000D02*
X111940000Y-72540000D01*
X111940000Y-74060000D02*
X111940000Y-75080000D01*
X111940000Y-76600000D02*
X111940000Y-77620000D01*
X111940000Y-79140000D02*
X111940000Y-80160000D01*
X111940000Y-81680000D02*
X111940000Y-82250000D01*
X111940000Y-82250000D02*
X127115000Y-82250000D01*
X127115000Y-64350000D02*
X127115000Y-64920000D01*
X127115000Y-66440000D02*
X127115000Y-67460000D01*
X127115000Y-68980000D02*
X127115000Y-70000000D01*
X127115000Y-71520000D02*
X127115000Y-72540000D01*
X127115000Y-74060000D02*
X127115000Y-75080000D01*
X127115000Y-76600000D02*
X127115000Y-77620000D01*
X127115000Y-79140000D02*
X127115000Y-80160000D01*
X127115000Y-81680000D02*
X127115000Y-82250000D01*
%TO.C,R3*%
X124480000Y-93350000D02*
X125250000Y-93350000D01*
X132560000Y-93350000D02*
X131790000Y-93350000D01*
X125250000Y-91980000D02*
X131790000Y-91980000D01*
X131790000Y-94720000D01*
X125250000Y-94720000D01*
X125250000Y-91980000D01*
%TO.C,R2*%
X124480000Y-89300000D02*
X125250000Y-89300000D01*
X132560000Y-89300000D02*
X131790000Y-89300000D01*
X125250000Y-87930000D02*
X131790000Y-87930000D01*
X131790000Y-90670000D01*
X125250000Y-90670000D01*
X125250000Y-87930000D01*
%TO.C,R1*%
X124480000Y-85250000D02*
X125250000Y-85250000D01*
X132560000Y-85250000D02*
X131790000Y-85250000D01*
X125250000Y-83880000D02*
X131790000Y-83880000D01*
X131790000Y-86620000D01*
X125250000Y-86620000D01*
X125250000Y-83880000D01*
D13*
%TO.C,Q1*%
X142314630Y-87444630D02*
G75*
G02*
X136474630Y-87444630I-2920000J0D01*
G01*
X136474630Y-87444630D02*
G75*
G02*
X142314630Y-87444630I2920000J0D01*
G01*
X136957590Y-85834900D02*
X136053550Y-84930870D01*
X136053550Y-84930870D02*
X136880870Y-84103550D01*
X136880870Y-84103550D02*
X137784900Y-85007590D01*
D14*
X135994630Y-87444630D02*
G75*
G02*
X135794630Y-87444630I-100000J0D01*
G01*
X135794630Y-87444630D02*
G75*
G02*
X135994630Y-87444630I100000J0D01*
G01*
D12*
%TO.C,M1*%
X134900000Y-64370000D02*
X134900000Y-79730000D01*
X134900000Y-79730000D02*
X137560000Y-79730000D01*
X137560000Y-79730000D02*
X137560000Y-64370000D01*
X137560000Y-64370000D02*
X134900000Y-64370000D01*
X137560000Y-65320000D02*
X143560000Y-65320000D01*
X143560000Y-65320000D02*
X143560000Y-66080000D01*
X143560000Y-66080000D02*
X137560000Y-66080000D01*
X137560000Y-65380000D02*
X143560000Y-65380000D01*
X137560000Y-65500000D02*
X143560000Y-65500000D01*
X137560000Y-65620000D02*
X143560000Y-65620000D01*
X137560000Y-65740000D02*
X143560000Y-65740000D01*
X137560000Y-65860000D02*
X143560000Y-65860000D01*
X137560000Y-65980000D02*
X143560000Y-65980000D01*
X134570000Y-65320000D02*
X134900000Y-65320000D01*
X134570000Y-66080000D02*
X134900000Y-66080000D01*
X134900000Y-66970000D02*
X137560000Y-66970000D01*
X137560000Y-67860000D02*
X143560000Y-67860000D01*
X143560000Y-67860000D02*
X143560000Y-68620000D01*
X143560000Y-68620000D02*
X137560000Y-68620000D01*
X134502929Y-67860000D02*
X134900000Y-67860000D01*
X134502929Y-68620000D02*
X134900000Y-68620000D01*
X134900000Y-69510000D02*
X137560000Y-69510000D01*
X137560000Y-70400000D02*
X143560000Y-70400000D01*
X143560000Y-70400000D02*
X143560000Y-71160000D01*
X143560000Y-71160000D02*
X137560000Y-71160000D01*
X134502929Y-70400000D02*
X134900000Y-70400000D01*
X134502929Y-71160000D02*
X134900000Y-71160000D01*
X134900000Y-72050000D02*
X137560000Y-72050000D01*
X137560000Y-72940000D02*
X143560000Y-72940000D01*
X143560000Y-72940000D02*
X143560000Y-73700000D01*
X143560000Y-73700000D02*
X137560000Y-73700000D01*
X134502929Y-72940000D02*
X134900000Y-72940000D01*
X134502929Y-73700000D02*
X134900000Y-73700000D01*
X134900000Y-74590000D02*
X137560000Y-74590000D01*
X137560000Y-75480000D02*
X143560000Y-75480000D01*
X143560000Y-75480000D02*
X143560000Y-76240000D01*
X143560000Y-76240000D02*
X137560000Y-76240000D01*
X134502929Y-75480000D02*
X134900000Y-75480000D01*
X134502929Y-76240000D02*
X134900000Y-76240000D01*
X134900000Y-77130000D02*
X137560000Y-77130000D01*
X137560000Y-78020000D02*
X143560000Y-78020000D01*
X143560000Y-78020000D02*
X143560000Y-78780000D01*
X143560000Y-78780000D02*
X137560000Y-78780000D01*
X134502929Y-78020000D02*
X134900000Y-78020000D01*
X134502929Y-78780000D02*
X134900000Y-78780000D01*
X132190000Y-65700000D02*
X132190000Y-64430000D01*
X132190000Y-64430000D02*
X133460000Y-64430000D01*
D13*
%TO.C,LS1*%
X121090000Y-90100000D02*
G75*
G02*
X108890000Y-90100000I-6100000J0D01*
G01*
X108890000Y-90100000D02*
G75*
G02*
X121090000Y-90100000I6100000J0D01*
G01*
D12*
%TO.C,B1*%
X136170000Y-97330000D02*
X138830000Y-97330000D01*
X136170000Y-94730000D02*
X136170000Y-97330000D01*
X138830000Y-94730000D02*
X138830000Y-97330000D01*
X136170000Y-94730000D02*
X138830000Y-94730000D01*
X136170000Y-93460000D02*
X136170000Y-92130000D01*
X136170000Y-92130000D02*
X137500000Y-92130000D01*
%TD*%
M02*
